<?xml version="1.0" encoding="utf-8"?>
<!-- Generator: Adobe Illustrator 16.0.0, SVG Export Plug-In . SVG Version: 6.00 Build 0)  -->
<!DOCTYPE svg PUBLIC "-//W3C//DTD SVG 1.1//EN" "http://www.w3.org/Graphics/SVG/1.1/DTD/svg11.dtd">
<svg version="1.1" id="Layer_1" xmlns="http://www.w3.org/2000/svg" xmlns:xlink="http://www.w3.org/1999/xlink" x="0px" y="0px"
	 width="25px" height="24px" viewBox="0 0 25 24" enable-background="new 0 0 25 24" xml:space="preserve">
<path fill-rule="evenodd" clip-rule="evenodd" fill="#3E3E3E" d="M25,21.999c0,1.104-0.896,1.999-2,1.999H1.999
	C0.895,23.998,0,23.104,0,21.999l3-14h3.999V5.333c0-2.945,2.239-5.333,5-5.333c2.763,0,4.999,2.388,4.999,5.333v2.666h5L25,21.999
	L25,21.999z M3,21.999h3.999L5,10L3,21.999L3,21.999z M15,5.199c0-1.767-1.344-3.2-3.001-3.2S9,3.432,9,5.199v2.8h6V5.199L15,5.199z
	"/>
</svg>
