<?xml version="1.0" encoding="utf-8"?>
<!-- Generator: Adobe Illustrator 16.0.4, SVG Export Plug-In . SVG Version: 6.00 Build 0) -->
<!DOCTYPE svg PUBLIC "-//W3C//DTD SVG 1.1//EN" "http://www.w3.org/Graphics/SVG/1.1/DTD/svg11.dtd">
<svg version="1.1" id="Layer_1" xmlns="http://www.w3.org/2000/svg" xmlns:xlink="http://www.w3.org/1999/xlink" x="0px" y="0px" width="20.002px" height="21px" viewBox="0 0 20.002 21" enable-background="new 0 0 20.002 21" xml:space="preserve">
<path fill="#FFFFFF" d="M10,3c2.206,0,4,1.794,4,4c0,1.058-0.409,2.056-1.152,2.809c-0.702,0.711-1.001,1.727-0.802,2.706
s0.875,1.796,1.8,2.177c1.22,0.502,2.623,1.333,3.157,1.847c0,0.358,0,0.877,0,1.46h-6.658H3v-1.475
c0.546-0.51,1.942-1.327,3.152-1.822c0.93-0.377,1.609-1.194,1.811-2.176s-0.101-2.001-0.806-2.714C6.411,9.059,6,8.06,6,7
C6,4.794,7.794,3,10,3 M10,0C6.134,0,3,3.134,3,7c0,1.92,0.772,3.658,2.024,4.923C5.024,11.923,0,13.962,0,16c0,0.088,0,5,0,5
h10.344H20c0,0,0.005-4.838,0-5c-0.064-2.062-5.017-4.083-5.017-4.083C16.23,10.652,17,8.916,17,7C17,3.134,13.866,0,10,0L10,0z"/>
</svg>