<?xml version="1.0" encoding="utf-8"?>
<!-- Generator: Adobe Illustrator 16.0.4, SVG Export Plug-In . SVG Version: 6.00 Build 0) -->
<!DOCTYPE svg PUBLIC "-//W3C//DTD SVG 1.1//EN" "http://www.w3.org/Graphics/SVG/1.1/DTD/svg11.dtd">
<svg version="1.1" id="Layer_1" xmlns="http://www.w3.org/2000/svg" xmlns:xlink="http://www.w3.org/1999/xlink" x="0px" y="0px"
width="19px" height="19px" viewBox="0 0 19 19" enable-background="new 0 0 19 19" xml:space="preserve">
<path fill="#FFFFFF" d="M19,16.879l-4.865-4.865c0.822-1.228,1.305-2.702,1.305-4.29C15.44,3.458,11.984,0,7.72,0
C3.456,0,0,3.458,0,7.724c0,4.266,3.456,7.724,7.72,7.724c1.591,0,3.068-0.486,4.296-1.311L16.879,19L19,16.879z M3,7.724
C3,5.119,5.117,3,7.72,3c2.603,0,4.72,2.119,4.72,4.724c0,2.605-2.117,4.724-4.72,4.724C5.117,12.448,3,10.329,3,7.724z"/>
</svg>